<svg width="41" height="57" fill="none" xmlns="http://www.w3.org/2000/svg"><path d="M-40.277 41.613c.958 5.269 1.794 10.556 2.751 15.824 3.002 4.413 6.106 8.75 9.108 13.162 4.358 3.039 8.642 6.181 13 9.22 5.205.969 10.428 1.816 15.632 2.785 5.204-.97 10.427-1.816 15.631-2.785 4.359-3.039 8.643-6.181 13.002-9.22 3.001-4.412 6.105-8.75 9.107-13.162.957-5.268 1.794-10.555 2.75-15.824-.956-5.268-1.793-10.556-2.75-15.824-3.002-4.412-6.106-8.75-9.107-13.162-4.359-3.039-8.643-6.18-13.002-9.22C10.65 2.43 5.428 1.582.223.613c-5.204.97-10.427 1.816-15.63 2.785-4.36 3.039-8.644 6.181-13.002 9.22-3.002 4.412-6.106 8.75-9.108 13.161-.966 5.269-1.802 10.566-2.76 15.834Zm6.57 14.225c-.854-4.732-1.616-9.493-2.462-14.225.846-4.742 1.608-9.492 2.463-14.225 2.704-3.96 5.483-7.865 8.196-11.826 3.913-2.737 7.77-5.56 11.682-8.297C-9.154 6.399-4.451 5.628.223 4.77 4.907 5.628 9.6 6.4 14.275 7.265c3.912 2.737 7.769 5.55 11.681 8.297 2.705 3.961 5.493 7.865 8.197 11.826.855 4.732 1.617 9.493 2.463 14.225-.855 4.732-1.617 9.493-2.472 14.225-2.705 3.96-5.483 7.865-8.197 11.826-3.912 2.738-7.769 5.56-11.681 8.298-4.675.865-9.377 1.637-14.052 2.493-4.684-.856-9.377-1.628-14.051-2.493-3.913-2.738-7.77-5.551-11.682-8.298-2.695-3.96-5.483-7.865-8.187-11.826Z" fill="#fff" fill-opacity=".03"/><path d="M-4.302 41.613c.083.593.167 1.195.26 1.788.353.48.706.969 1.068 1.448.474.358.948.725 1.432 1.082.585.085 1.18.18 1.765.264.586-.085 1.18-.17 1.766-.264.474-.357.957-.715 1.431-1.081.353-.48.716-.96 1.069-1.45.084-.592.177-1.194.26-1.787-.083-.593-.167-1.195-.26-1.787-.353-.48-.706-.97-1.069-1.45-.474-.357-.948-.724-1.43-1.081-.586-.085-1.181-.179-1.767-.264-.585.085-1.18.17-1.765.264-.474.357-.958.715-1.432 1.082-.353.48-.715.96-1.068 1.449-.084.592-.177 1.185-.26 1.787Zm3.763.32c-.018-.103-.028-.216-.046-.32.018-.103.028-.216.046-.32.065-.084.13-.17.195-.263.084-.066.168-.132.26-.188.103-.02.214-.029.317-.047.102.018.213.028.316.047.083.066.167.131.26.188.065.084.13.17.186.263.018.104.028.217.046.32-.018.104-.028.217-.046.32-.065.085-.13.17-.186.263a6.332 6.332 0 0 1-.26.198c-.103.019-.214.028-.316.047-.103-.019-.214-.028-.316-.047a6.33 6.33 0 0 0-.26-.198c-.075-.094-.13-.178-.196-.263Z" fill="#fff" fill-opacity=".03"/><path d="M-30.333 41.613c.706 3.98 1.357 7.969 2.063 11.948 2.286 3.321 4.61 6.605 6.886 9.926 3.281 2.305 6.524 4.666 9.805 6.971 3.93.715 7.871 1.364 11.802 2.089 3.931-.715 7.872-1.374 11.803-2.089 3.28-2.314 6.524-4.666 9.804-6.971 2.277-3.321 4.61-6.605 6.886-9.926.707-3.98 1.348-7.968 2.063-11.948-.706-3.98-1.356-7.968-2.063-11.948-2.286-3.321-4.609-6.604-6.886-9.925-3.28-2.305-6.524-4.667-9.804-6.972-3.931-.715-7.872-1.364-11.803-2.088-3.93.715-7.871 1.373-11.802 2.088-3.28 2.315-6.524 4.667-9.805 6.971-2.276 3.322-4.609 6.605-6.886 9.926-.706 3.98-1.347 7.968-2.063 11.948Zm21.384 3.839a255.2 255.2 0 0 1-.558-3.848c.177-1.28.363-2.569.558-3.848a243.081 243.081 0 0 1 2.286-3.124c1.022-.78 2.045-1.552 3.085-2.314 1.264-.197 2.528-.386 3.801-.564 1.264.178 2.537.366 3.801.564 1.032.762 2.063 1.534 3.086 2.314a191.37 191.37 0 0 1 2.286 3.124 255.2 255.2 0 0 1 .557 3.848c-.176 1.28-.362 2.568-.557 3.848a243.783 243.783 0 0 1-2.286 3.123 189.35 189.35 0 0 1-3.086 2.314c-1.264.198-2.527.386-3.8.565a266.1 266.1 0 0 1-3.802-.565 240.555 240.555 0 0 1-3.085-2.314c-.762-1.035-1.524-2.08-2.286-3.123Zm-9.423-3.058c-.02-.132-.01-.122.009.038.028.197.028.178-.01-.057v.019Zm5.994 13.077c-.102-.075-.093-.075.037.028.158.123.14.113-.047-.037l.01.01ZM.995 60.43c-.13.019-.121.01.037-.01.195-.028.176-.028-.056.01h.019Zm12.917-6.059c-.074.104-.074.094.028-.037.121-.16.112-.141-.037.047l.01-.01Zm4.898-13.538c.018.132.018.123-.01-.037-.027-.198-.027-.18.01.056v-.019Zm-5.985-13.077c.102.075.093.075-.037-.028-.158-.122-.14-.113.046.038 0-.01-.009-.01-.009-.01ZM-.548 22.788c.13-.02.12-.01-.046.01-.196.027-.177.027.055-.01h-.009Zm-12.918 6.068c.075-.104.075-.094-.027.037-.121.16-.112.142.037-.047-.01 0-.01.01-.01.01Zm-4.906 11.995c.027-.235.037-.263.009-.056-.019.16-.019.169-.01.037v.02Zm4.916 13.529c-.149-.188-.158-.207-.037-.047.102.131.102.14.027.037 0 0 0 .01.01.01ZM-.53 60.43c-.233-.03-.26-.039-.056-.01.158.018.167.018.046.01h.01Zm13.363-4.968c-.186.15-.204.16-.046.037.13-.103.14-.103.037-.028l.01-.01Zm5.976-13.087c-.028.235-.037.264-.01.057.02-.16.02-.17.01-.038v-.019Zm-4.907-13.529c.149.189.158.207.037.047-.102-.131-.102-.14-.028-.037l-.009-.01ZM.976 22.788c.232.028.26.037.056.01-.158-.02-.167-.02-.037-.01H.976Zm-13.364 4.977c.186-.151.205-.16.047-.038-.13.103-.14.103-.037.028 0 0-.01 0-.01.01Zm-5.891 13.848a1.75 1.75 0 0 0-.093.395c-.028.141-.02.282.009.424 0 .112.028.216.074.32.112.244.186.432.381.62.437.433 1.004.47 1.58.424 1.44-.141 2.797-.668 4.145-1.157.158 1.147.325 2.295.492 3.443-3.466.536-8.698.978-9.2-3.359a4.354 4.354 0 0 1 0-1.1 4.354 4.354 0 0 1 0-1.101c.502-4.337 5.734-3.895 9.2-3.359-.176 1.148-.334 2.296-.492 3.443-1.357-.489-2.704-1.016-4.145-1.157-.576-.056-1.143-.01-1.58.424-.195.188-.27.376-.38.62a.766.766 0 0 0-.075.32 1.084 1.084 0 0 0-.01.424c.02.122.047.254.094.376Zm5.417-13.246c-.12.056-.232.122-.343.216a.888.888 0 0 0-.288.301.7.7 0 0 0-.168.273c-.083.254-.167.433-.167.715.01.611.381 1.054.827 1.43 1.115.931 2.444 1.524 3.736 2.154-.688.922-1.375 1.854-2.054 2.785-2.825-2.098-6.83-5.532-4.163-8.966.241-.31.502-.564.771-.771.204-.273.455-.536.762-.781 3.383-2.71 6.775 1.355 8.857 4.215-.92.687-1.84 1.373-2.751 2.079-.614-1.317-1.199-2.653-2.128-3.782-.372-.452-.809-.828-1.413-.837-.27 0-.455.075-.706.169a.731.731 0 0 0-.27.17.982.982 0 0 0-.297.291 1.56 1.56 0 0 0-.205.339ZM.223 22.882a1.697 1.697 0 0 0-.39-.094 1.045 1.045 0 0 0-.418.01.744.744 0 0 0-.316.074c-.242.113-.428.189-.614.386-.427.442-.464 1.016-.418 1.6.14 1.458.66 2.831 1.143 4.195-1.133.16-2.267.33-3.401.5-.53-3.51-.966-8.807 3.318-9.315.39-.047.752-.047 1.087 0a4.195 4.195 0 0 1 1.087 0c4.285.508 3.848 5.805 3.318 9.314-1.134-.179-2.268-.339-3.401-.499.483-1.373 1.003-2.737 1.143-4.195.056-.584.01-1.158-.418-1.6-.186-.197-.372-.273-.614-.386a.744.744 0 0 0-.316-.075 1.045 1.045 0 0 0-.418-.01c-.12.02-.25.048-.372.095Zm13.085 5.485a1.525 1.525 0 0 0-.213-.348.888.888 0 0 0-.298-.292.688.688 0 0 0-.27-.17c-.25-.084-.427-.169-.706-.169-.604.01-1.04.386-1.412.837-.92 1.13-1.506 2.475-2.128 3.783-.911-.697-1.831-1.393-2.751-2.08 2.072-2.86 5.464-6.915 8.856-4.214.307.244.558.508.762.78.27.207.53.462.772.772 2.676 3.424-1.339 6.858-4.164 8.966a309.571 309.571 0 0 0-2.054-2.785c1.302-.621 2.621-1.214 3.736-2.155.446-.376.818-.809.827-1.43 0-.272-.074-.46-.167-.714a.745.745 0 0 0-.167-.273 1.106 1.106 0 0 0-.288-.301 1.792 1.792 0 0 0-.335-.207Zm5.418 13.246a1.75 1.75 0 0 0 .093-.395 1.082 1.082 0 0 0-.01-.423.767.767 0 0 0-.074-.32c-.111-.245-.185-.433-.38-.621-.437-.433-1.004-.47-1.58-.423-1.44.14-2.798.667-4.145 1.157a438.741 438.741 0 0 0-.493-3.444c3.467-.536 8.699-.978 9.2 3.359.047.395.047.762 0 1.1.047.34.047.706 0 1.101-.501 4.337-5.733 3.895-9.2 3.36.177-1.149.335-2.297.493-3.444 1.357.489 2.704 1.016 4.145 1.157.576.056 1.143.01 1.58-.423.195-.189.269-.377.38-.621a.767.767 0 0 0 .075-.32c.028-.141.037-.282.01-.424a1.854 1.854 0 0 0-.094-.376ZM13.308 54.86c.121-.056.233-.122.344-.216a.89.89 0 0 0 .288-.3.699.699 0 0 0 .167-.274c.084-.254.168-.433.168-.715-.01-.611-.381-1.053-.827-1.43-1.116-.931-2.444-1.524-3.736-2.154a306.24 306.24 0 0 0 2.053-2.785c2.826 2.098 6.831 5.532 4.164 8.966a4.28 4.28 0 0 1-.771.771 4.284 4.284 0 0 1-.762.781c-3.383 2.71-6.775-1.355-8.857-4.215.92-.686 1.84-1.373 2.75-2.079.614 1.317 1.2 2.653 2.129 3.782.372.452.809.828 1.413.838.27 0 .455-.076.706-.17a.733.733 0 0 0 .27-.17c.12-.074.213-.178.297-.29.074-.114.149-.217.204-.34ZM.223 60.344c.121.047.251.076.39.094.14.029.28.02.419-.009a.744.744 0 0 0 .316-.075c.241-.113.427-.188.613-.386.428-.442.465-1.016.418-1.6-.139-1.458-.66-2.831-1.143-4.195 1.134-.16 2.268-.33 3.402-.499.53 3.51.966 8.806-3.318 9.314-.39.047-.753.047-1.087 0a4.195 4.195 0 0 1-1.088 0c-4.284-.508-3.847-5.805-3.317-9.314 1.133.179 2.267.339 3.4.499-.482 1.373-1.003 2.737-1.142 4.196-.056.583-.01 1.157.418 1.6.186.197.372.272.613.385a.744.744 0 0 0 .316.075c.14.028.28.038.419.01.12-.02.25-.048.371-.095Zm-13.085-5.485c.056.123.121.236.214.349a.886.886 0 0 0 .298.291.687.687 0 0 0 .27.17c.25.084.427.169.705.169.604-.01 1.041-.386 1.413-.837.92-1.13 1.505-2.475 2.128-3.782.91.696 1.83 1.392 2.75 2.079-2.072 2.86-5.464 6.915-8.856 4.215a4.28 4.28 0 0 1-.762-.781 4.285 4.285 0 0 1-.771-.772c-2.676-3.424 1.338-6.858 4.163-8.965.679.93 1.367 1.862 2.054 2.784-1.3.621-2.62 1.214-3.736 2.155-.446.376-.817.818-.827 1.43 0 .273.075.46.168.715a.743.743 0 0 0 .167.273c.074.122.176.216.288.3.102.076.214.151.334.207ZM-24.32 41.613a6.935 6.935 0 0 0 .056 1.844c.66 4.045 4.107 5.127 7.75 5.175-2.546 2.643-4.228 5.87-1.868 9.21.39.546.809.988 1.245 1.345.344.442.79.866 1.33 1.26 3.299 2.39 6.486.688 9.098-1.89.046 3.688 1.115 7.178 5.11 7.846a6.33 6.33 0 0 0 1.822.057 6.685 6.685 0 0 0 1.822-.057c3.996-.668 5.065-4.158 5.111-7.846 2.612 2.578 5.8 4.28 9.098 1.89a6.917 6.917 0 0 0 1.33-1.26c.436-.348.854-.8 1.244-1.345 2.36-3.34.679-6.567-1.867-9.21 3.642-.048 7.09-1.13 7.75-5.175a6.56 6.56 0 0 0 .056-1.844 6.927 6.927 0 0 0-.056-1.844c-.66-4.045-4.108-5.127-7.75-5.174 2.546-2.644 4.228-5.87 1.867-9.21a6.936 6.936 0 0 0-1.245-1.346 6.658 6.658 0 0 0-1.329-1.26c-3.299-2.39-6.487-.688-9.098 1.89-.046-3.688-1.115-7.178-5.111-7.846a6.33 6.33 0 0 0-1.822-.056 6.685 6.685 0 0 0-1.821.056c-3.996.668-5.065 4.158-5.111 7.846-2.612-2.578-5.8-4.28-9.098-1.89a6.924 6.924 0 0 0-1.33 1.26c-.436.348-.854.8-1.245 1.345-2.36 3.34-.678 6.567 1.868 9.21-3.643.048-7.09 1.13-7.75 5.175a6.935 6.935 0 0 0-.056 1.844Zm-1.561 10.942c-.642-3.641-1.236-7.301-1.878-10.942.642-3.65 1.236-7.3 1.878-10.941 2.09-3.04 4.219-6.05 6.31-9.088 3.001-2.117 5.975-4.272 8.977-6.389 3.596-.649 7.212-1.25 10.808-1.9 3.606.65 7.212 1.251 10.808 1.9 3.002 2.117 5.976 4.272 8.977 6.389 2.091 3.038 4.22 6.049 6.31 9.088.642 3.64 1.236 7.3 1.878 10.941-.642 3.641-1.236 7.3-1.878 10.942-2.09 3.038-4.219 6.049-6.31 9.088-3.001 2.117-5.975 4.27-8.977 6.388-3.596.649-7.211 1.251-10.808 1.9-3.606-.649-7.212-1.251-10.808-1.9-3.002-2.117-5.976-4.272-8.977-6.388-2.082-3.04-4.22-6.05-6.31-9.088Z" fill="#fff" fill-opacity=".03"/></svg>